<?xml version="1.0" encoding="UTF-8" standalone="no"?>
<!-- Created with Inkscape (http://www.inkscape.org/) -->

<svg
   xmlns:dc="http://purl.org/dc/elements/1.1/"
   xmlns:cc="http://creativecommons.org/ns#"
   xmlns:rdf="http://www.w3.org/1999/02/22-rdf-syntax-ns#"
   xmlns:svg="http://www.w3.org/2000/svg"
   xmlns="http://www.w3.org/2000/svg"
   version="1.1"
   width="100%"
   height="100%"
   viewBox="0 0 312.12 527.47"
   id="svg2">
  <defs
     id="defs4">
    <filter
       color-interpolation-filters="sRGB"
       id="filter3825">
      <feGaussianBlur
         stdDeviation="7.4901433"
         id="feGaussianBlur3827" />
    </filter>
    <filter
       color-interpolation-filters="sRGB"
       id="filter3953">
      <feGaussianBlur
         stdDeviation="3.0229927"
         id="feGaussianBlur3955" />
    </filter>
    <filter
       x="-2.6510999"
       y="-0.14894"
       width="6.3021002"
       height="1.2979"
       color-interpolation-filters="sRGB"
       id="filter3974">
      <feGaussianBlur
         stdDeviation="11.419238"
         id="feGaussianBlur3976" />
    </filter>
    <linearGradient
       x1="282.54999"
       y1="471.13"
       x2="469.66"
       y2="470.10001"
       id="linearGradient4007"
       gradientUnits="userSpaceOnUse"
       gradientTransform="translate(3.0941e-6,0.067564)">
      <stop
         id="stop3941"
         style="stop-color:#1a1a1a;stop-opacity:1"
         offset="0" />
      <stop
         id="stop3943"
         style="stop-color:#1a1a1a;stop-opacity:0"
         offset="1" />
    </linearGradient>
    <linearGradient
       x1="-198.49001"
       y1="143.57001"
       x2="-13.332"
       y2="143.57001"
       id="linearGradient4009"
       gradientUnits="userSpaceOnUse">
      <stop
         id="stop3980"
         style="stop-color:#000000;stop-opacity:1"
         offset="0" />
      <stop
         id="stop3982"
         style="stop-color:#000000;stop-opacity:0"
         offset="1" />
    </linearGradient>
    <radialGradient
       cx="261.48001"
       cy="309.94"
       r="66.704002"
       id="radialGradient4011"
       gradientUnits="userSpaceOnUse"
       gradientTransform="matrix(1.1615,0.072923,-0.13976,2.226,1.0993,-399.06)">
      <stop
         id="stop3952"
         style="stop-color:#1a1a1a;stop-opacity:1"
         offset="0" />
      <stop
         id="stop3954"
         style="stop-color:#1a1a1a;stop-opacity:0"
         offset="1" />
    </radialGradient>
  </defs>
  <g
     transform="translate(-300.68,-107.58)"
     id="layer1">
    <g
       id="g3986">
      <path
         d="m 246.04005,497.66232 a 83.73632,14.472943 0 1 1 -167.472644,0 83.73632,14.472943 0 1 1 167.472644,0 z"
         transform="matrix(1.5062,0,0,1.0507,184.89,95.18)"
         id="path3958"
         style="opacity:0.44601004;fill:#999999;fill-rule:evenodd;stroke:#333333;stroke-width:3.40860009" />
      <path
         d="m 311.5,372.16 242.94,-77.534 c -27.942,106.88 -73.45,212.16 -74.203,321.51 -36.418,10.968 -71.997,13.406 -105.71,-3.1013 -8.759,-100.7 -38.902,-165.77 -63.022,-240.87 z"
         id="rect3159"
         style="fill:#cccccc" />
      <path
         d="m 311.5,372.23 242.94,-77.534 c -27.95,106.87 -73.46,212.15 -74.21,321.5 -36.42,10.97 -72,13.41 -105.71,-3.1 -8.76,-100.7 -38.91,-165.77 -63.02,-240.87 z"
         id="path3169"
         style="opacity:0.65277997;fill:url(#linearGradient4007)" />
      <g
         transform="matrix(0.37911,0,0,0.3984,531.39,223.35)"
         id="g3817"
         style="filter:url(#filter3825)">
        <path
           d="m -229.28,207.6 c -3.2152,0.024 -6.3526,0.0919 -9.3412,0.2004 -415.52,158.37 75.521,-88.502 104.22,74.806 6.4676,62.483 -82.05,109.87 -141.32,146.91 84.483,-37.705 178.52,-85.575 170.28,-165.24 -4.8685,-47.035 -75.615,-57.041 -123.84,-56.68 z"
           id="path3819"
           style="opacity:0.68500001;fill:#e3dbdb;fill-rule:evenodd" />
        <path
           d="m -270.53,244.74 c -2.7304,0.0166 -5.3948,0.0635 -7.9327,0.13848 -147.3,52.045 -127.34,21.999 -44.235,18.995 40.609,-1.1993 128.33,-1.9708 132.74,32.698 5.4924,43.177 -69.679,75.922 -120.01,101.52 71.745,-26.055 151.61,-59.134 144.6,-114.18 -4.1345,-32.502 -64.214,-39.416 -105.17,-39.167 z"
           id="path3821"
           style="opacity:0.68500001;fill:#e3dbdb;fill-rule:evenodd" />
        <path
           d="m -390.53,445.52 c 2.2667,-0.0166 4.4786,-0.0635 6.5856,-0.13848 63.788,-2.2692 156.33,-41.762 213.02,-78.522 -54.92,22.836 -124.93,57.7 -176.29,59.527 -33.712,1.1993 -106.54,1.9708 -110.2,-32.698 -4.5597,-43.177 57.845,-75.922 99.629,-101.52 -59.561,26.055 -125.86,59.134 -120.05,114.18 3.4323,32.502 53.309,39.416 87.309,39.167 z"
           id="path3823"
           style="opacity:0.68500001;fill:#e3dbdb;fill-rule:evenodd" />
      </g>
      <path
         d="m 640,389.50504 a 258.57144,268.57144 0 1 1 -517.14288,0 258.57144,268.57144 0 1 1 517.14288,0 z"
         transform="matrix(0.060477,0.27723,-0.45149,0.16806,584.52,157.42)"
         id="path3763"
         style="fill:#b3b3b3;fill-rule:evenodd" />
      <path
         d="m 640,389.50504 a 258.57144,268.57144 0 1 1 -517.14288,0 258.57144,268.57144 0 1 1 517.14288,0 z"
         transform="matrix(0.056995,0.26127,-0.42549,0.15838,570.85,166.16)"
         id="path2985"
         style="fill:#e6e6e6;fill-rule:evenodd" />
      <path
         d="m 512.97,321.05 c 5.0327,48.439 -68.7,77.463 -114.82,82.526 -26.809,2.9431 -75.08,-4.1175 -74.739,-32.441 0.63122,-52.422 88.005,-69.273 139.73,-71.143 17.891,-0.64693 47.883,2.3571 49.826,21.058 z"
         id="path3800"
         style="fill:#ff9955;fill-rule:evenodd" />
      <g
         transform="matrix(0.37911,0,0,0.3984,531.39,223.35)"
         id="g3812">
        <path
           d="m -229.28,207.6 c -3.2152,0.024 -6.3526,0.0919 -9.3412,0.2004 -415.52,158.37 75.521,-88.502 104.22,74.806 6.4676,62.483 -82.05,109.87 -141.32,146.91 84.483,-37.705 178.52,-85.575 170.28,-165.24 -4.8685,-47.035 -75.615,-57.041 -123.84,-56.68 z"
           id="path3803"
           style="opacity:0.68500001;fill:#e3dbdb;fill-rule:evenodd" />
        <path
           d="m -270.53,244.74 c -2.7304,0.0166 -5.3948,0.0635 -7.9327,0.13848 -147.3,52.045 -127.34,21.999 -44.235,18.995 40.609,-1.1993 128.33,-1.9708 132.74,32.698 5.4924,43.177 -69.679,75.922 -120.01,101.52 71.745,-26.055 151.61,-59.134 144.6,-114.18 -4.1345,-32.502 -64.214,-39.416 -105.17,-39.167 z"
           id="path3808"
           style="opacity:0.68500001;fill:#e3dbdb;fill-rule:evenodd" />
        <path
           d="m -390.53,445.52 c 2.2667,-0.0166 4.4786,-0.0635 6.5856,-0.13848 63.788,-2.2692 156.33,-41.762 213.02,-78.522 -54.92,22.836 -124.93,57.7 -176.29,59.527 -33.712,1.1993 -106.54,1.9708 -110.2,-32.698 -4.5597,-43.177 57.845,-75.922 99.629,-101.52 -59.561,26.055 -125.86,59.134 -120.05,114.18 3.4323,32.502 53.309,39.416 87.309,39.167 z"
           id="path3810"
           style="opacity:0.68500001;fill:#e3dbdb;fill-rule:evenodd" />
      </g>
      <path
         d="m -37.444,-73.821 c 0.24256,-0.12511 1.0145,0.75017 2.1912,2.6172 1.1768,1.867 2.7557,4.7307 4.4494,8.6238 1.6936,3.893 3.4993,8.8217 5.0061,14.774 1.5068,5.9527 2.7123,12.936 3.1208,20.799 0.37211,7.1026 0.09255,14.935 -1.2324,23.239 -1.32495,8.304 -3.6969,17.082 -7.514,25.891 -3.4985,8.0234 -8.0937,15.977 -13.674,23.701 -5.5806,7.7243 -12.147,15.219 -19.4,22.36 -6.3662,6.2824 -13.24,12.339 -20.427,18.305 -7.1872,5.9657 -14.688,11.841 -22.245,17.834 -12.532,9.9651 -25.325,20.297 -36.784,32.215 -1.3194,1.3722 -2.6138,2.7588 -3.8814,4.1613 -6.2025,6.8799 -11.802,14.156 -16.449,21.735 -4.6473,7.5789 -8.3417,15.46 -10.827,23.553 -3.6435,11.657 -4.8355,23.774 -4.9329,35.489 -0.10274,14.487 1.6814,28.297 4.6388,40.988 2.9574,12.691 7.0859,24.264 11.718,34.514 0,0 0,1e-5 1e-5,1e-5 4.9617,10.97 10.505,20.445 15.897,28.42 5.3923,7.9749 10.632,14.458 15.114,19.599 4.4815,5.1403 8.2029,8.9486 10.705,11.576 2.5017,2.6274 3.7806,4.0846 3.5559,4.3594 -0.22464,0.27481 -1.9436,-0.64675 -4.9174,-2.8001 -2.9738,-2.1533 -7.2002,-5.5488 -12.232,-10.379 -5.0316,-4.8304 -10.867,-11.107 -16.878,-19.014 -6.011,-7.907 -12.196,-17.454 -17.77,-28.661 v -1e-5 c -5.2109,-10.469 -9.8932,-22.404 -13.323,-35.609 -3.4295,-13.205 -5.6031,-27.682 -5.7505,-42.979 -0.13347,-12.341 1.0213,-25.388 4.8818,-38.337 2.7166,-8.9662 6.6857,-17.631 11.648,-25.867 4.9622,-8.2355 10.917,-16.041 17.51,-23.296 1.3411,-1.4793 2.7066,-2.9386 4.0944,-4.3795 12.053,-12.513 25.212,-23.092 37.909,-32.998 7.6398,-5.9766 15.144,-11.734 22.275,-17.499 7.1311,-5.7654 13.889,-11.54 20.104,-17.481 7.0564,-6.762 13.452,-13.75 18.901,-20.899 5.4487,-7.1492 9.9505,-14.46 13.405,-21.832 3.7925,-8.0406 6.2958,-16.149 7.853,-23.89 1.5572,-7.7409 2.1693,-15.116 2.1811,-21.866 0.0096,-7.4729 -0.71341,-14.194 -1.7222,-20 -1.0088,-5.8052 -2.3011,-10.7 -3.4905,-14.648 -1.1894,-3.9474 -2.2732,-6.9532 -2.9642,-9.0137 -0.69104,-2.0605 -0.986,-3.1806 -0.74345,-3.3057 z"
         transform="matrix(0.47974759,0,0,0.51569387,481.53747,154.78376)"
         id="path3929"
         style="fill:#ffffff;fill-opacity:1;fill-rule:evenodd;stroke:#ffffff;stroke-width:9.05314732;stroke-linecap:square;stroke-linejoin:round;stroke-miterlimit:4;stroke-opacity:1;stroke-dasharray:none;filter:url(#filter3953)" />
      <g
         transform="translate(284.62,148.45)"
         id="text3162"
         style="fill:#b3b3b3">
        <path
           d="m 196.83,422.03 c -10.065,-8.8189 -4.7943,-25.175 1.0921,-35.272 6.3053,-5.0685 11.946,-11.014 17.582,-16.976 25.622,-26.791 52.767,-52.185 77.027,-80.238 9.6295,-13.224 14.462,-33.16 3.8182,-47.16 -6.2151,-8.4669 -17.231,-8.8455 -26.748,-9.2967 -9.7683,-0.23805 -19.822,-1.1914 -29.397,1.1596 -3.8474,-12.213 0.0695,-26.3 10.154,-34.335 20.411,4.2035 43.345,2.645 60.98,15.4 17.06,13.047 19.674,37.446 14.415,56.964 -3.269,12.854 -8.8181,25.285 -17.502,35.417"
           id="path3167"
           style="fill:#b3b3b3" />
        <path
           d="m 196.83,419.96 c -0.76136,-10.886 -4.7943,-23.108 1.0921,-33.205 6.3053,-5.0685 11.946,-11.014 17.582,-16.976 25.622,-26.791 52.767,-52.185 77.027,-80.238 9.6295,-13.224 14.462,-33.16 3.8182,-47.16 -6.2151,-8.4669 -17.231,-8.8455 -26.748,-9.2967 -9.7683,-0.23805 -19.822,-1.1914 -29.397,1.1596 -3.8474,-12.213 0.0695,-26.3 10.154,-34.335 20.411,4.2035 43.345,2.645 60.98,15.4 17.06,13.047 19.674,37.446 14.415,56.964 -3.269,12.854 -8.8181,25.285 -17.502,35.417"
           id="path3948"
           style="opacity:0.44601004;fill:url(#radialGradient4011)" />
      </g>
      <path
         d="m 152.99969,366.37204 a 5.1689086,92.006569 0 1 1 -10.33782,0 5.1689086,92.006569 0 1 1 10.33782,0 z"
         transform="matrix(1.1738,0,0,1,250.24,148.45)"
         id="path3960"
         style="fill:#ffffff;fill-rule:evenodd;filter:url(#filter3974)" />
    </g>
  </g>
  <style
     type="text/css"
     id="style26" />
  <metadata
     id="metadata3121">
    <rdf:RDF>
      <cc:Work>
        <dc:format>image/svg+xml</dc:format>
        <dc:type
           rdf:resource="http://purl.org/dc/dcmitype/StillImage" />
        <cc:license
           rdf:resource="http://creativecommons.org/licenses/publicdomain/" />
        <dc:publisher>
          <cc:Agent
             rdf:about="http://openclipart.org/">
            <dc:title>Openclipart</dc:title>
          </cc:Agent>
        </dc:publisher>
        <dc:title></dc:title>
        <dc:date>2011-05-24T13:32:56</dc:date>
        <dc:description>Coffee cup </dc:description>
        <dc:source>https://openclipart.org/detail/140275/coffee-cup-by-gsagri04</dc:source>
        <dc:creator>
          <cc:Agent>
            <dc:title>gsagri04</dc:title>
          </cc:Agent>
        </dc:creator>
        <dc:subject>
          <rdf:Bag>
            <rdf:li>coffee</rdf:li>
            <rdf:li>cup</rdf:li>
            <rdf:li>drink</rdf:li>
            <rdf:li>hot</rdf:li>
          </rdf:Bag>
        </dc:subject>
      </cc:Work>
      <cc:License
         rdf:about="http://creativecommons.org/licenses/publicdomain/">
        <cc:permits
           rdf:resource="http://creativecommons.org/ns#Reproduction" />
        <cc:permits
           rdf:resource="http://creativecommons.org/ns#Distribution" />
        <cc:permits
           rdf:resource="http://creativecommons.org/ns#DerivativeWorks" />
      </cc:License>
    </rdf:RDF>
  </metadata>
</svg>
